<svg width="800px" height="800px" viewBox="0 0 24 24" fill="none" xmlns="http://www.w3.org/2000/svg">
<path d="M12 2C6.47715 2 2 6.47715 2 12C2 17.5228 6.47715 22 12 22C17.5228 22 22 17.5228 22 12C22 6.47715 17.5228 2 12 2ZM12 4C16.4183 4 20 7.58172 20 12C20 16.4183 16.4183 20 12 20C7.58172 20 4 16.4183 4 12C4 7.58172 7.58172 4 12 4Z" fill="currentColor"/>
<circle cx="9" cy="10" r="1" fill="currentColor"/>
<circle cx="15" cy="10" r="1" fill="currentColor"/>
<path d="M12 15C13.6569 15 15 13.6569 15 12H9C9 13.6569 10.3431 15 12 15Z" fill="currentColor"/>
</svg>
